<?xml version="1.0" encoding="utf-8"?>
<!-- Generator: Adobe Illustrator 26.5.0, SVG Export Plug-In . SVG Version: 6.00 Build 0)  -->
<svg version="1.1" id="Layer_2_00000139283399589745385640000006316831237417062801_"
	 xmlns="http://www.w3.org/2000/svg" xmlns:xlink="http://www.w3.org/1999/xlink" x="0px" y="0px" viewBox="0 0 243 74.4"
	 style="enable-background:new 0 0 243 74.4;" xml:space="preserve">
<style type="text/css">
	.st0{fill:none;stroke:#231F20;stroke-width:3;stroke-miterlimit:10;}
	.st1{fill:none;stroke:#231F20;stroke-width:2;stroke-miterlimit:10;}
	.st2{enable-background:new    ;}
	.st3{fill:#231F20;}
</style>
<g id="Layer_1-2">
	<g>
		<rect x="1.8" y="1.5" class="st0" width="239.7" height="71.4"/>
		<rect x="6.7" y="7.1" class="st1" width="228.2" height="60.6"/>
		<g class="st2">
			<path class="st3" d="M36.2,26.8v3.7h-7.7v18.8h-3.9V30.4h-7.6v-3.7H36.2z"/>
			<path class="st3" d="M47.7,49.2V26.8h17.1v3.7H51.5v15.1h13.2v3.7H47.7z M64.6,36.7v3.7H53.2v-3.7H64.6z"/>
			<path class="st3" d="M80.5,32.7v16.5h-4V26.7h5.4l8,16.1l8-16.1h5.4v22.5h-3.9V32.6l-9.5,18.8L80.5,32.7z"/>
		</g>
		<g class="st2">
			<path class="st3" d="M115,26.8h13.8c0.8,0,1.5,0.2,2.3,0.5c0.7,0.3,1.3,0.8,1.9,1.5c0.5,0.6,1,1.4,1.3,2.2
				c0.3,0.9,0.5,1.8,0.5,2.8c0,0.9-0.2,1.7-0.5,2.5c-0.3,0.8-0.7,1.5-1.3,2.1c-0.5,0.6-1.2,1.1-1.9,1.5c-0.7,0.4-1.5,0.6-2.3,0.6
				h-4.2v-3.7h3.9c0.4,0,0.7-0.1,1-0.3c0.3-0.2,0.5-0.4,0.7-0.7c0.2-0.3,0.3-0.6,0.4-1c0.1-0.4,0.1-0.7,0.1-1c0-0.4-0.1-0.7-0.2-1.1
				c-0.1-0.4-0.3-0.7-0.5-1c-0.2-0.3-0.5-0.6-0.8-0.8c-0.3-0.2-0.6-0.3-1-0.3h-9.5v18.8H115V26.8z"/>
		</g>
		<g class="st2">
			<path class="st3" d="M153.1,24.6l12.3,24.7h-17.9l2.5-3.7h9l-6-12.3l-8,16h-4.4L153.1,24.6z"/>
		</g>
		<g class="st2">
			<path class="st3" d="M177.1,26.8V39c0.1,0.9,0.4,1.8,0.8,2.6c0.5,0.8,1,1.5,1.7,2.1c0.7,0.6,1.5,1,2.3,1.4
				c0.9,0.3,1.8,0.5,2.7,0.5c0.9,0,1.8-0.2,2.7-0.5s1.6-0.8,2.3-1.4s1.2-1.3,1.7-2.1s0.7-1.6,0.8-2.6V26.8h3.9v11.3
				c0,1.6-0.3,3-0.9,4.4c-0.6,1.4-1.4,2.6-2.4,3.6c-1,1-2.2,1.8-3.6,2.4c-1.4,0.6-2.9,0.9-4.5,0.9s-3.1-0.3-4.5-0.9
				c-1.4-0.6-2.6-1.4-3.6-2.4c-1-1-1.8-2.2-2.4-3.6c-0.6-1.4-0.9-2.8-0.9-4.4V26.8H177.1z"/>
			<path class="st3" d="M214.2,30.4c-1,0-1.7,0.3-2.1,0.8s-0.7,1.2-0.7,2.1c0,0.7,0.2,1.4,0.6,1.9s1.1,0.8,2,1v3.7
				c-0.9,0-1.8-0.2-2.6-0.5s-1.5-0.8-2.1-1.4c-0.6-0.6-1.1-1.3-1.4-2.1s-0.5-1.6-0.5-2.5c0-1,0.2-1.9,0.5-2.7
				c0.3-0.8,0.7-1.5,1.3-2.1c0.5-0.6,1.1-1,1.9-1.3c0.7-0.3,1.5-0.5,2.3-0.5h13.5v3.7H214.2z M220.4,45.6c1,0,1.7-0.3,2.2-0.8
				s0.7-1.2,0.7-2.1c0-0.7-0.2-1.3-0.6-1.8c-0.4-0.5-1.1-0.8-2-1v-3.7c0.9,0,1.7,0.2,2.5,0.5c0.8,0.3,1.5,0.8,2.1,1.4
				c0.6,0.6,1.1,1.3,1.4,2.1s0.5,1.6,0.5,2.5c0,1-0.2,1.9-0.5,2.7c-0.3,0.8-0.7,1.5-1.3,2.1s-1.2,1-1.9,1.3
				c-0.7,0.3-1.5,0.5-2.3,0.5h-13.5v-3.7H220.4z"/>
		</g>
	</g>
</g>
</svg>
